{
	"asset":{
		"generator":"Khronos glTF Blender I/O v3.6.27",
		"version":"2.0"
	},
	"scene":0,
	"scenes":[
		{
			"name":"Scene",
			"nodes":[
				0
			]
		}
	],
	"nodes":[
		{
			"mesh":0,
			"name":"sphere"
		}
	],
	"materials":[
		{
			"doubleSided":true,
			"name":"mat_0.002",
			"pbrMetallicRoughness":{
				"baseColorFactor":[
					0.6038269996643066,
					0.6038269996643066,
					0.6038269996643066,
					1
				],
				"metallicFactor":0,
				"roughnessFactor":0
			}
		}
	],
	"meshes":[
		{
			"name":"Sphere.001",
			"primitives":[
				{
					"attributes":{
						"POSITION":0,
						"NORMAL":1
					},
					"indices":2,
					"material":0
				}
			]
		}
	],
	"accessors":[
		{
			"bufferView":0,
			"componentType":5126,
			"count":5694,
			"max":[
				6.380030632019043,
				6.294961929321289,
				6.430845260620117
			],
			"min":[
				-6.380030632019043,
				-6.294961929321289,
				-6.430845260620117
			],
			"type":"VEC3"
		},
		{
			"bufferView":1,
			"componentType":5126,
			"count":5694,
			"type":"VEC3"
		},
		{
			"bufferView":2,
			"componentType":5123,
			"count":34128,
			"type":"SCALAR"
		}
	],
	"bufferViews":[
		{
			"buffer":0,
			"byteLength":68328,
			"byteOffset":0,
			"target":34962
		},
		{
			"buffer":0,
			"byteLength":68328,
			"byteOffset":68328,
			"target":34962
		},
		{
			"buffer":0,
			"byteLength":68256,
			"byteOffset":136656,
			"target":34963
		}
	],
	"buffers":[
		{
			"byteLength":204912,
			"uri":"sphere.bin"
		}
	]
}
