{
	"asset":{
		"generator":"Khronos glTF Blender I/O v4.0.44",
		"version":"2.0"
	},
	"extensionsUsed":[
		"KHR_lights_punctual"
	],
	"extensionsRequired":[
		"KHR_lights_punctual"
	],
	"extensions":{
		"KHR_lights_punctual":{
			"lights":[
				{
					"color":[
						1,
						1,
						1
					],
					"intensity":543.5141306588226,
					"type":"point",
					"name":"Point"
				}
			]
		}
	},
	"scene":0,
	"scenes":[
		{
			"name":"Scene",
			"nodes":[
				0,
				1,
				2
			]
		}
	],
	"nodes":[
		{
			"mesh":0,
			"name":"node_damagedHelmet_-6514",
			"rotation":[
				0.70710688829422,
				0,
				0,
				0.7071066498756409
			]
		},
		{
			"camera":0,
			"name":"Camera.001",
			"rotation":[
				-0.15857070684432983,
				0.3354139029979706,
				0.05738421529531479,
				0.9268548488616943
			],
			"translation":[
				2.393925905227661,
				1.3199442625045776,
				2.6902523040771484
			]
		},
		{
			"extensions":{
				"KHR_lights_punctual":{
					"light":0
				}
			},
			"name":"Point",
			"rotation":[
				-0.7071068286895752,
				0,
				0,
				0.7071068286895752
			],
			"translation":[
				2.5,
				5,
				2.5
			]
		}
	],
	"cameras":[
		{
			"name":"Camera.001",
			"perspective":{
				"aspectRatio":1.7777777777777777,
				"yfov":0.7853981852531433,
				"zfar":38.153106689453125,
				"znear":0.003815310774371028
			},
			"type":"perspective"
		}
	],
	"materials":[
		{
			"emissiveFactor":[
				1,
				1,
				1
			],
			"emissiveTexture":{
				"index":0
			},
			"name":"Material_MR",
			"normalTexture":{
				"index":1
			},
			"occlusionTexture":{
				"index":2
			},
			"pbrMetallicRoughness":{
				"baseColorTexture":{
					"index":3
				},
				"metallicRoughnessTexture":{
					"index":2
				}
			}
		}
	],
	"meshes":[
		{
			"name":"mesh_helmet_LP_13930damagedHelmet",
			"primitives":[
				{
					"attributes":{
						"COLOR_0":0,
						"POSITION":1,
						"NORMAL":2,
						"TEXCOORD_0":3,
						"TANGENT":4
					},
					"indices":5,
					"material":0
				}
			]
		}
	],
	"textures":[
		{
			"sampler":0,
			"source":0
		},
		{
			"sampler":0,
			"source":1
		},
		{
			"sampler":0,
			"source":2
		},
		{
			"sampler":0,
			"source":3
		}
	],
	"images":[
		{
			"mimeType":"image/jpeg",
			"name":"Image_2",
			"uri":"Image_2.jpg"
		},
		{
			"mimeType":"image/jpeg",
			"name":"Image_4",
			"uri":"Image_4.jpg"
		},
		{
			"mimeType":"image/png",
			"name":"Image_3-Image_1",
			"uri":"Image_3-Image_1.png"
		},
		{
			"mimeType":"image/jpeg",
			"name":"Image_0",
			"uri":"Image_0.jpg"
		}
	],
	"accessors":[
		{
			"bufferView":0,
			"componentType":5123,
			"count":16495,
			"normalized":true,
			"type":"VEC4"
		},
		{
			"bufferView":1,
			"componentType":5126,
			"count":16495,
			"max":[
				0.9424954056739807,
				0.8128451108932495,
				0.900973916053772
			],
			"min":[
				-0.9474585652351379,
				-1.18715500831604,
				-0.9009949564933777
			],
			"type":"VEC3"
		},
		{
			"bufferView":2,
			"componentType":5126,
			"count":16495,
			"type":"VEC3"
		},
		{
			"bufferView":3,
			"componentType":5126,
			"count":16495,
			"type":"VEC2"
		},
		{
			"bufferView":4,
			"componentType":5126,
			"count":16495,
			"type":"VEC4"
		},
		{
			"bufferView":5,
			"componentType":5123,
			"count":46356,
			"type":"SCALAR"
		}
	],
	"bufferViews":[
		{
			"buffer":0,
			"byteLength":131960,
			"byteOffset":0,
			"target":34962
		},
		{
			"buffer":0,
			"byteLength":197940,
			"byteOffset":131960,
			"target":34962
		},
		{
			"buffer":0,
			"byteLength":197940,
			"byteOffset":329900,
			"target":34962
		},
		{
			"buffer":0,
			"byteLength":131960,
			"byteOffset":527840,
			"target":34962
		},
		{
			"buffer":0,
			"byteLength":263920,
			"byteOffset":659800,
			"target":34962
		},
		{
			"buffer":0,
			"byteLength":92712,
			"byteOffset":923720,
			"target":34963
		}
	],
	"samplers":[
		{
			"magFilter":9729,
			"minFilter":9987
		}
	],
	"buffers":[
		{
			"byteLength":1016432,
			"uri":"DamagedHelmet.bin"
		}
	]
}
