{
    "asset" : {
        "generator" : "Khronos glTF Blender I/O v1.6.16",
        "version" : "2.0"
    },
    "extensionsUsed" : [
        "KHR_lights_punctual"
    ],
    "extensionsRequired" : [
        "KHR_lights_punctual"
    ],
    "extensions" : {
        "KHR_lights_punctual" : {
            "lights" : [
                {
                    "color" : [
                        1,
                        1,
                        1
                    ],
                    "intensity" : 1000,
                    "type" : "point",
                    "name" : "Light"
                }
            ]
        }
    },
    "scene" : 0,
    "scenes" : [
        {
            "extras" : {
                "glTF2ExportSettings" : {
                    "export_apply" : 1,
                    "export_cameras" : 1,
                    "export_extras" : 1,
                    "export_format" : "GLTF_SEPARATE",
                    "export_lights" : 1,
                    "export_yup" : 1
                }
            },
            "name" : "Scene",
            "nodes" : [
                0,
                2,
                4,
                5,
                6,
                7,
                8
            ]
        }
    ],
    "nodes" : [
        {
            "mesh" : 0,
            "name" : "Cube",
            "rotation" : [
                -0.2728767693042755,
                0.2728767693042755,
                -0.6523329615592957,
                0.6523329019546509
            ]
        },
        {
            "extensions" : {
                "KHR_lights_punctual" : {
                    "light" : 0
                }
            },
            "name" : "Light_Orientation",
            "rotation" : [
                -0.7071067690849304,
                0,
                0,
                0.7071067690849304
            ]
        },
        {
            "children" : [
                1
            ],
            "name" : "Light",
            "rotation" : [
                0.16907575726509094,
                0.7558803558349609,
                -0.27217137813568115,
                0.570947527885437
            ],
            "translation" : [
                4.076245307922363,
                5.903861999511719,
                -1.0054539442062378
            ]
        },
        {
            "camera" : 0,
            "name" : "Camera_Orientation",
            "rotation" : [
                -0.7071067690849304,
                0,
                0,
                0.7071067690849304
            ]
        },
        {
            "children" : [
                3
            ],
            "name" : "Camera",
            "rotation" : [
                0.4178670644760132,
                0,
                0,
                0.9085081815719604
            ],
            "translation" : [
                0,
                12,
                15
            ]
        },
        {
            "mesh" : 1,
            "name" : "Suzanne",
            "rotation" : [
                0,
                -0.3826834559440613,
                0,
                0.9238795042037964
            ],
            "translation" : [
                5,
                0,
                -5
            ]
        },
        {
            "mesh" : 2,
            "name" : "Cone",
            "rotation" : [
                0.27059808373451233,
                -0.27059808373451233,
                -0.653281569480896,
                0.6532815098762512
            ],
            "translation" : [
                -5,
                0,
                -5
            ]
        },
        {
            "mesh" : 3,
            "name" : "Torus",
            "translation" : [
                -5,
                0,
                5
            ]
        },
        {
            "mesh" : 4,
            "name" : "Cylinder",
            "rotation" : [
                -0.27059808373451233,
                -0.27059808373451233,
                0.653281569480896,
                0.6532815098762512
            ],
            "translation" : [
                5,
                0,
                5
            ]
        }
    ],
    "cameras" : [
        {
            "name" : "Camera",
            "perspective" : {
                "aspectRatio" : 1.7777777777777777,
                "yfov" : 0.4578223484558942,
                "zfar" : 1000,
                "znear" : 0.009999999776482582
            },
            "type" : "perspective"
        }
    ],
    "materials" : [
        {
            "doubleSided" : true,
            "name" : "Material",
            "pbrMetallicRoughness" : {
                "baseColorFactor" : [
                    0.800000011920929,
                    0.800000011920929,
                    0.800000011920929,
                    1
                ],
                "metallicFactor" : 0,
                "roughnessFactor" : 0.4000000059604645
            }
        }
    ],
    "meshes" : [
        {
            "name" : "Cube",
            "primitives" : [
                {
                    "attributes" : {
                        "POSITION" : 0,
                        "NORMAL" : 1
                    },
                    "indices" : 2,
                    "material" : 0
                }
            ]
        },
        {
            "name" : "Suzanne",
            "primitives" : [
                {
                    "attributes" : {
                        "POSITION" : 3,
                        "NORMAL" : 4,
                        "TEXCOORD_0" : 5
                    },
                    "indices" : 6
                }
            ]
        },
        {
            "name" : "Cone",
            "primitives" : [
                {
                    "attributes" : {
                        "POSITION" : 7,
                        "NORMAL" : 8,
                        "TEXCOORD_0" : 9
                    },
                    "indices" : 10
                }
            ]
        },
        {
            "name" : "Torus",
            "primitives" : [
                {
                    "attributes" : {
                        "POSITION" : 11,
                        "NORMAL" : 12,
                        "TEXCOORD_0" : 13
                    },
                    "indices" : 14
                }
            ]
        },
        {
            "name" : "Cylinder",
            "primitives" : [
                {
                    "attributes" : {
                        "POSITION" : 15,
                        "NORMAL" : 16,
                        "TEXCOORD_0" : 17
                    },
                    "indices" : 18
                }
            ]
        }
    ],
    "accessors" : [
        {
            "bufferView" : 0,
            "componentType" : 5126,
            "count" : 354,
            "max" : [
                1.4499999284744263,
                4.699999809265137,
                2.8999998569488525
            ],
            "min" : [
                -1.4499999284744263,
                -1.4499999284744263,
                -1.4499999284744263
            ],
            "type" : "VEC3"
        },
        {
            "bufferView" : 1,
            "componentType" : 5126,
            "count" : 354,
            "type" : "VEC3"
        },
        {
            "bufferView" : 2,
            "componentType" : 5123,
            "count" : 600,
            "type" : "SCALAR"
        },
        {
            "bufferView" : 3,
            "componentType" : 5126,
            "count" : 1966,
            "max" : [
                1.3671875,
                0.984375,
                0.8515625
            ],
            "min" : [
                -1.3671875,
                -0.984375,
                -0.8515625
            ],
            "type" : "VEC3"
        },
        {
            "bufferView" : 4,
            "componentType" : 5126,
            "count" : 1966,
            "type" : "VEC3"
        },
        {
            "bufferView" : 5,
            "componentType" : 5126,
            "count" : 1966,
            "type" : "VEC2"
        },
        {
            "bufferView" : 6,
            "componentType" : 5123,
            "count" : 2904,
            "type" : "SCALAR"
        },
        {
            "bufferView" : 7,
            "componentType" : 5126,
            "count" : 128,
            "max" : [
                1,
                1,
                1
            ],
            "min" : [
                -1,
                -1,
                -1
            ],
            "type" : "VEC3"
        },
        {
            "bufferView" : 8,
            "componentType" : 5126,
            "count" : 128,
            "type" : "VEC3"
        },
        {
            "bufferView" : 9,
            "componentType" : 5126,
            "count" : 128,
            "type" : "VEC2"
        },
        {
            "bufferView" : 10,
            "componentType" : 5123,
            "count" : 186,
            "type" : "SCALAR"
        },
        {
            "bufferView" : 11,
            "componentType" : 5126,
            "count" : 2304,
            "max" : [
                1.25,
                0.25,
                1.25
            ],
            "min" : [
                -1.25,
                -0.25,
                -1.25
            ],
            "type" : "VEC3"
        },
        {
            "bufferView" : 12,
            "componentType" : 5126,
            "count" : 2304,
            "type" : "VEC3"
        },
        {
            "bufferView" : 13,
            "componentType" : 5126,
            "count" : 2304,
            "type" : "VEC2"
        },
        {
            "bufferView" : 14,
            "componentType" : 5123,
            "count" : 3456,
            "type" : "SCALAR"
        },
        {
            "bufferView" : 15,
            "componentType" : 5126,
            "count" : 192,
            "max" : [
                1,
                1,
                1
            ],
            "min" : [
                -1,
                -1,
                -1
            ],
            "type" : "VEC3"
        },
        {
            "bufferView" : 16,
            "componentType" : 5126,
            "count" : 192,
            "type" : "VEC3"
        },
        {
            "bufferView" : 17,
            "componentType" : 5126,
            "count" : 192,
            "type" : "VEC2"
        },
        {
            "bufferView" : 18,
            "componentType" : 5123,
            "count" : 372,
            "type" : "SCALAR"
        }
    ],
    "bufferViews" : [
        {
            "buffer" : 0,
            "byteLength" : 4248,
            "byteOffset" : 0
        },
        {
            "buffer" : 0,
            "byteLength" : 4248,
            "byteOffset" : 4248
        },
        {
            "buffer" : 0,
            "byteLength" : 1200,
            "byteOffset" : 8496
        },
        {
            "buffer" : 0,
            "byteLength" : 23592,
            "byteOffset" : 9696
        },
        {
            "buffer" : 0,
            "byteLength" : 23592,
            "byteOffset" : 33288
        },
        {
            "buffer" : 0,
            "byteLength" : 15728,
            "byteOffset" : 56880
        },
        {
            "buffer" : 0,
            "byteLength" : 5808,
            "byteOffset" : 72608
        },
        {
            "buffer" : 0,
            "byteLength" : 1536,
            "byteOffset" : 78416
        },
        {
            "buffer" : 0,
            "byteLength" : 1536,
            "byteOffset" : 79952
        },
        {
            "buffer" : 0,
            "byteLength" : 1024,
            "byteOffset" : 81488
        },
        {
            "buffer" : 0,
            "byteLength" : 372,
            "byteOffset" : 82512
        },
        {
            "buffer" : 0,
            "byteLength" : 27648,
            "byteOffset" : 82884
        },
        {
            "buffer" : 0,
            "byteLength" : 27648,
            "byteOffset" : 110532
        },
        {
            "buffer" : 0,
            "byteLength" : 18432,
            "byteOffset" : 138180
        },
        {
            "buffer" : 0,
            "byteLength" : 6912,
            "byteOffset" : 156612
        },
        {
            "buffer" : 0,
            "byteLength" : 2304,
            "byteOffset" : 163524
        },
        {
            "buffer" : 0,
            "byteLength" : 2304,
            "byteOffset" : 165828
        },
        {
            "buffer" : 0,
            "byteLength" : 1536,
            "byteOffset" : 168132
        },
        {
            "buffer" : 0,
            "byteLength" : 744,
            "byteOffset" : 169668
        }
    ],
    "buffers" : [
        {
            "byteLength" : 170412,
            "uri" : "TestScene.bin"
        }
    ]
}
