{
	"asset":{
		"generator":"Khronos glTF Blender I/O v3.6.27",
		"version":"2.0"
	},
	"scene":0,
	"scenes":[
		{
			"name":"Scene",
			"nodes":[
				0
			]
		}
	],
	"nodes":[
		{
			"mesh":0,
			"name":"Object_2",
			"rotation":[
				-0.7071068286895752,
				0,
				0,
				0.7071068286895752
			]
		}
	],
	"materials":[
		{
			"doubleSided":true,
			"name":"material_0",
			"pbrMetallicRoughness":{
				"metallicFactor":0,
				"roughnessFactor":0.6000000238418579
			}
		}
	],
	"meshes":[
		{
			"name":"Object_0",
			"primitives":[
				{
					"attributes":{
						"POSITION":0,
						"NORMAL":1
					},
					"indices":2,
					"material":0
				}
			]
		}
	],
	"accessors":[
		{
			"bufferView":0,
			"componentType":5126,
			"count":2609,
			"max":[
				0.06077880039811134,
				0.0616791695356369,
				0.18699601292610168
			],
			"min":[
				-0.09438042342662811,
				-0.05871463939547539,
				0.033309899270534515
			],
			"type":"VEC3"
		},
		{
			"bufferView":1,
			"componentType":5126,
			"count":2609,
			"type":"VEC3"
		},
		{
			"bufferView":2,
			"componentType":5123,
			"count":14904,
			"type":"SCALAR"
		}
	],
	"bufferViews":[
		{
			"buffer":0,
			"byteLength":31308,
			"byteOffset":0,
			"target":34962
		},
		{
			"buffer":0,
			"byteLength":31308,
			"byteOffset":31308,
			"target":34962
		},
		{
			"buffer":0,
			"byteLength":29808,
			"byteOffset":62616,
			"target":34963
		}
	],
	"buffers":[
		{
			"byteLength":92424,
			"uri":"scene.bin"
		}
	]
}
