{
	"asset":{
		"generator":"Khronos glTF Blender I/O v3.6.27",
		"version":"2.0"
	},
	"extensionsUsed":[
		"KHR_lights_punctual"
	],
	"extensionsRequired":[
		"KHR_lights_punctual"
	],
	"extensions":{
		"KHR_lights_punctual":{
			"lights":[
				{
					"color":[
						1,
						1,
						1
					],
					"intensity":54.35141306588226,
					"type":"point",
					"name":"Point.001"
				}
			]
		}
	},
	"scene":0,
	"scenes":[
		{
			"name":"Scene",
			"nodes":[
				0,
				1,
				2
			]
		}
	],
	"nodes":[
		{
			"mesh":0,
			"name":"stanford_bunny",
			"rotation":[
				0.7071069478988647,
				0,
				0,
				0.7071066498756409
			],
			"scale":[
				30,
				30.000003814697266,
				30.000003814697266
			],
			"translation":[
				0,
				-1,
				0
			]
		},
		{
			"camera":0,
			"name":"Camera.001",
			"translation":[
				-0.7499999403953552,
				2,
				13.440000534057617
			]
		},
		{
			"extensions":{
				"KHR_lights_punctual":{
					"light":0
				}
			},
			"name":"Point",
			"rotation":[
				-0.7071068286895752,
				0,
				0,
				0.7071068286895752
			],
			"translation":[
				-4.599659442901611,
				2.552903175354004,
				1.8399999141693115
			]
		}
	],
	"cameras":[
		{
			"name":"Camera.003",
			"perspective":{
				"aspectRatio":1.7777777777777777,
				"yfov":0.39959652046304894,
				"zfar":1000,
				"znear":0.10000000149011612
			},
			"type":"perspective"
		}
	],
	"meshes":[
		{
			"name":"bun_zipper",
			"primitives":[
				{
					"attributes":{
						"POSITION":0,
						"NORMAL":1
					},
					"indices":2
				}
			]
		}
	],
	"accessors":[
		{
			"bufferView":0,
			"componentType":5126,
			"count":208353,
			"max":[
				0.06100910156965256,
				0.05879969894886017,
				-0.03298740088939667
			],
			"min":[
				-0.09468989819288254,
				-0.061873599886894226,
				-0.1873210072517395
			],
			"type":"VEC3"
		},
		{
			"bufferView":1,
			"componentType":5126,
			"count":208353,
			"type":"VEC3"
		},
		{
			"bufferView":2,
			"componentType":5125,
			"count":208353,
			"type":"SCALAR"
		}
	],
	"bufferViews":[
		{
			"buffer":0,
			"byteLength":2500236,
			"byteOffset":0,
			"target":34962
		},
		{
			"buffer":0,
			"byteLength":2500236,
			"byteOffset":2500236,
			"target":34962
		},
		{
			"buffer":0,
			"byteLength":833412,
			"byteOffset":5000472,
			"target":34963
		}
	],
	"buffers":[
		{
			"byteLength":5833884,
			"uri":"stanford_bunny.bin"
		}
	]
}
