{
	"asset":{
		"generator":"Khronos glTF Blender I/O v3.6.27",
		"version":"2.0"
	},
	"scene":0,
	"scenes":[
		{
			"name":"Scene",
			"nodes":[
				1,
				2
			]
		}
	],
	"nodes":[
		{
			"mesh":0,
			"name":"floor_1stfloor_01",
			"translation":[
				4.055417537689209,
				-0.4251940846443176,
				-0.04547119140625
			]
		},
		{
			"children":[
				0
			],
			"name":"1st_floor"
		},
		{
			"camera":0,
			"name":"Camera",
			"rotation":[
				-0.17387303709983826,
				0.706826388835907,
				0.17564669251441956,
				0.6628068089485168
			],
			"translation":[
				11.58557415008545,
				5.547882080078125,
				0
			]
		}
	],
	"cameras":[
		{
			"name":"Camera.001",
			"perspective":{
				"aspectRatio":1.7777777777777777,
				"yfov":0.39959652046304894,
				"zfar":1000,
				"znear":0.10000000149011612
			},
			"type":"perspective"
		}
	],
	"materials":[
		{
			"name":"arch_stone_wall_01.001",
			"normalTexture":{
				"index":0
			},
			"pbrMetallicRoughness":{
				"baseColorTexture":{
					"index":1
				},
				"metallicRoughnessTexture":{
					"index":2
				}
			}
		},
		{
			"name":"stones_01_tile.001",
			"normalTexture":{
				"index":3
			},
			"pbrMetallicRoughness":{
				"baseColorTexture":{
					"index":4
				},
				"metallicRoughnessTexture":{
					"index":5
				}
			}
		},
		{
			"name":"floor_01",
			"normalTexture":{
				"index":6
			},
			"pbrMetallicRoughness":{
				"baseColorTexture":{
					"index":7
				},
				"metallicRoughnessTexture":{
					"index":8
				}
			}
		},
		{
			"name":"metal_door.001",
			"normalTexture":{
				"index":9
			},
			"pbrMetallicRoughness":{
				"baseColorTexture":{
					"index":10
				},
				"metallicRoughnessTexture":{
					"index":11
				}
			}
		}
	],
	"meshes":[
		{
			"name":"floor_1stfloor_01",
			"primitives":[
				{
					"attributes":{
						"COLOR_0":0,
						"POSITION":1,
						"NORMAL":2,
						"TEXCOORD_0":3,
						"TEXCOORD_1":4,
						"TANGENT":5
					},
					"indices":6,
					"material":0
				},
				{
					"attributes":{
						"COLOR_0":7,
						"POSITION":8,
						"NORMAL":9,
						"TEXCOORD_0":10,
						"TEXCOORD_1":11,
						"TANGENT":12
					},
					"indices":13,
					"material":1
				},
				{
					"attributes":{
						"COLOR_0":14,
						"POSITION":15,
						"NORMAL":16,
						"TEXCOORD_0":17,
						"TEXCOORD_1":18,
						"TANGENT":19
					},
					"indices":20,
					"material":2
				},
				{
					"attributes":{
						"COLOR_0":21,
						"POSITION":22,
						"NORMAL":23,
						"TEXCOORD_0":24,
						"TEXCOORD_1":25,
						"TANGENT":26
					},
					"indices":27,
					"material":3
				}
			]
		}
	],
	"textures":[
		{
			"sampler":0,
			"source":0
		},
		{
			"sampler":0,
			"source":1
		},
		{
			"sampler":0,
			"source":2
		},
		{
			"sampler":0,
			"source":3
		},
		{
			"sampler":0,
			"source":4
		},
		{
			"sampler":0,
			"source":5
		},
		{
			"sampler":0,
			"source":6
		},
		{
			"sampler":0,
			"source":7
		},
		{
			"sampler":0,
			"source":8
		},
		{
			"sampler":0,
			"source":9
		},
		{
			"sampler":0,
			"source":10
		},
		{
			"sampler":0,
			"source":11
		}
	],
	"images":[
		{
			"mimeType":"image/png",
			"name":"arch_stone_wall_01_Normal",
			"uri":"arch_stone_wall_01_Normal.png"
		},
		{
			"mimeType":"image/png",
			"name":"arch_stone_wall_01_BaseColor",
			"uri":"arch_stone_wall_01_BaseColor.png"
		},
		{
			"mimeType":"image/png",
			"name":"arch_stone_wall_01_Roughnessarch_stone_wall_01_Metalness",
			"uri":"arch_stone_wall_01_Roughnessarch_stone_wall_01_Metalness.png"
		},
		{
			"mimeType":"image/png",
			"name":"stone_01_tile_Normal",
			"uri":"stone_01_tile_Normal.png"
		},
		{
			"mimeType":"image/png",
			"name":"stone_01_tile_BaseColor",
			"uri":"stone_01_tile_BaseColor.png"
		},
		{
			"mimeType":"image/png",
			"name":"stone_01_tile_Roughnessstone_01_tile_Metalness",
			"uri":"stone_01_tile_Roughnessstone_01_tile_Metalness.png"
		},
		{
			"mimeType":"image/png",
			"name":"floor_tiles_01_Normal",
			"uri":"floor_tiles_01_Normal.png"
		},
		{
			"mimeType":"image/png",
			"name":"floor_tiles_01_BaseColor",
			"uri":"floor_tiles_01_BaseColor.png"
		},
		{
			"mimeType":"image/png",
			"name":"floor_tiles_01_Roughnessfloor_tiles_01_Metalness",
			"uri":"floor_tiles_01_Roughnessfloor_tiles_01_Metalness.png"
		},
		{
			"mimeType":"image/png",
			"name":"metal_door_01_Normal",
			"uri":"metal_door_01_Normal.png"
		},
		{
			"mimeType":"image/png",
			"name":"metal_door_01_BaseColor",
			"uri":"metal_door_01_BaseColor.png"
		},
		{
			"mimeType":"image/png",
			"name":"metal_door_01_Roughnessmetal_door_01_Metalness",
			"uri":"metal_door_01_Roughnessmetal_door_01_Metalness.png"
		}
	],
	"accessors":[
		{
			"bufferView":0,
			"componentType":5123,
			"count":8,
			"normalized":true,
			"type":"VEC4"
		},
		{
			"bufferView":1,
			"componentType":5126,
			"count":8,
			"max":[
				7.276968955993652,
				0.4263514578342438,
				0.052823927253484726
			],
			"min":[
				7.276966571807861,
				0.23030440509319305,
				-4.2815680503845215
			],
			"type":"VEC3"
		},
		{
			"bufferView":2,
			"componentType":5126,
			"count":8,
			"type":"VEC3"
		},
		{
			"bufferView":3,
			"componentType":5126,
			"count":8,
			"type":"VEC2"
		},
		{
			"bufferView":4,
			"componentType":5126,
			"count":8,
			"type":"VEC2"
		},
		{
			"bufferView":5,
			"componentType":5126,
			"count":8,
			"type":"VEC4"
		},
		{
			"bufferView":6,
			"componentType":5123,
			"count":18,
			"type":"SCALAR"
		},
		{
			"bufferView":7,
			"componentType":5123,
			"count":668,
			"normalized":true,
			"type":"VEC4"
		},
		{
			"bufferView":8,
			"componentType":5126,
			"count":668,
			"max":[
				15.120003700256348,
				0.43382811546325684,
				1.6193523406982422
			],
			"min":[
				-4.185997009277344,
				-0.24920226633548737,
				-4.2890448570251465
			],
			"type":"VEC3"
		},
		{
			"bufferView":9,
			"componentType":5126,
			"count":668,
			"type":"VEC3"
		},
		{
			"bufferView":10,
			"componentType":5126,
			"count":668,
			"type":"VEC2"
		},
		{
			"bufferView":11,
			"componentType":5126,
			"count":668,
			"type":"VEC2"
		},
		{
			"bufferView":12,
			"componentType":5126,
			"count":668,
			"type":"VEC4"
		},
		{
			"bufferView":13,
			"componentType":5123,
			"count":2421,
			"type":"SCALAR"
		},
		{
			"bufferView":14,
			"componentType":5123,
			"count":3052,
			"normalized":true,
			"type":"VEC4"
		},
		{
			"bufferView":15,
			"componentType":5126,
			"count":3052,
			"max":[
				15.198160171508789,
				0.4251940846443176,
				6.092220783233643
			],
			"min":[
				-15.198161125183105,
				-0.43382811546325684,
				-6.092220783233643
			],
			"type":"VEC3"
		},
		{
			"bufferView":16,
			"componentType":5126,
			"count":3052,
			"type":"VEC3"
		},
		{
			"bufferView":17,
			"componentType":5126,
			"count":3052,
			"type":"VEC2"
		},
		{
			"bufferView":18,
			"componentType":5126,
			"count":3052,
			"type":"VEC2"
		},
		{
			"bufferView":19,
			"componentType":5126,
			"count":3052,
			"type":"VEC4"
		},
		{
			"bufferView":20,
			"componentType":5123,
			"count":4248,
			"type":"SCALAR"
		},
		{
			"bufferView":21,
			"componentType":5123,
			"count":794,
			"normalized":true,
			"type":"VEC4"
		},
		{
			"bufferView":22,
			"componentType":5126,
			"count":794,
			"max":[
				-3.844027519226074,
				0.4303872585296631,
				0.2011089324951172
			],
			"min":[
				-4.178365230560303,
				0.4081939458847046,
				-0.13802924752235413
			],
			"type":"VEC3"
		},
		{
			"bufferView":23,
			"componentType":5126,
			"count":794,
			"type":"VEC3"
		},
		{
			"bufferView":24,
			"componentType":5126,
			"count":794,
			"type":"VEC2"
		},
		{
			"bufferView":25,
			"componentType":5126,
			"count":794,
			"type":"VEC2"
		},
		{
			"bufferView":26,
			"componentType":5126,
			"count":794,
			"type":"VEC4"
		},
		{
			"bufferView":27,
			"componentType":5123,
			"count":2628,
			"type":"SCALAR"
		}
	],
	"bufferViews":[
		{
			"buffer":0,
			"byteLength":64,
			"byteOffset":0,
			"target":34962
		},
		{
			"buffer":0,
			"byteLength":96,
			"byteOffset":64,
			"target":34962
		},
		{
			"buffer":0,
			"byteLength":96,
			"byteOffset":160,
			"target":34962
		},
		{
			"buffer":0,
			"byteLength":64,
			"byteOffset":256,
			"target":34962
		},
		{
			"buffer":0,
			"byteLength":64,
			"byteOffset":320,
			"target":34962
		},
		{
			"buffer":0,
			"byteLength":128,
			"byteOffset":384,
			"target":34962
		},
		{
			"buffer":0,
			"byteLength":36,
			"byteOffset":512,
			"target":34963
		},
		{
			"buffer":0,
			"byteLength":5344,
			"byteOffset":548,
			"target":34962
		},
		{
			"buffer":0,
			"byteLength":8016,
			"byteOffset":5892,
			"target":34962
		},
		{
			"buffer":0,
			"byteLength":8016,
			"byteOffset":13908,
			"target":34962
		},
		{
			"buffer":0,
			"byteLength":5344,
			"byteOffset":21924,
			"target":34962
		},
		{
			"buffer":0,
			"byteLength":5344,
			"byteOffset":27268,
			"target":34962
		},
		{
			"buffer":0,
			"byteLength":10688,
			"byteOffset":32612,
			"target":34962
		},
		{
			"buffer":0,
			"byteLength":4842,
			"byteOffset":43300,
			"target":34963
		},
		{
			"buffer":0,
			"byteLength":24416,
			"byteOffset":48144,
			"target":34962
		},
		{
			"buffer":0,
			"byteLength":36624,
			"byteOffset":72560,
			"target":34962
		},
		{
			"buffer":0,
			"byteLength":36624,
			"byteOffset":109184,
			"target":34962
		},
		{
			"buffer":0,
			"byteLength":24416,
			"byteOffset":145808,
			"target":34962
		},
		{
			"buffer":0,
			"byteLength":24416,
			"byteOffset":170224,
			"target":34962
		},
		{
			"buffer":0,
			"byteLength":48832,
			"byteOffset":194640,
			"target":34962
		},
		{
			"buffer":0,
			"byteLength":8496,
			"byteOffset":243472,
			"target":34963
		},
		{
			"buffer":0,
			"byteLength":6352,
			"byteOffset":251968,
			"target":34962
		},
		{
			"buffer":0,
			"byteLength":9528,
			"byteOffset":258320,
			"target":34962
		},
		{
			"buffer":0,
			"byteLength":9528,
			"byteOffset":267848,
			"target":34962
		},
		{
			"buffer":0,
			"byteLength":6352,
			"byteOffset":277376,
			"target":34962
		},
		{
			"buffer":0,
			"byteLength":6352,
			"byteOffset":283728,
			"target":34962
		},
		{
			"buffer":0,
			"byteLength":12704,
			"byteOffset":290080,
			"target":34962
		},
		{
			"buffer":0,
			"byteLength":5256,
			"byteOffset":302784,
			"target":34963
		}
	],
	"samplers":[
		{
			"magFilter":9729,
			"minFilter":9987
		}
	],
	"buffers":[
		{
			"byteLength":308040,
			"uri":"scene.bin"
		}
	]
}
