{
  "accessors": [
    {
      "bufferView": 2,
      "componentType": 5126,
      "count": 22411,
      "max": [
        15.037576675415039,
        -24.654766082763672,
        6.374532699584961
      ],
      "min": [
        -13.494292259216309,
        -55.396141052246094,
        -8.378981590270996
      ],
      "type": "VEC3"
    },
    {
      "bufferView": 2,
      "byteOffset": 268932,
      "componentType": 5126,
      "count": 22411,
      "max": [
        0.9999117851257324,
        0.9999754428863525,
        0.9999992847442627
      ],
      "min": [
        -0.999968945980072,
        -0.999990701675415,
        -0.9999997615814209
      ],
      "type": "VEC3"
    },
    {
      "bufferView": 3,
      "componentType": 5126,
      "count": 22411,
      "max": [
        0.9999948740005493,
        0.9999997615814209,
        0.9999743103981018,
        1.0
      ],
      "min": [
        -0.9999995231628418,
        -0.9999913573265076,
        -0.9999769330024719,
        1.0
      ],
      "type": "VEC4"
    },
    {
      "bufferView": 1,
      "componentType": 5126,
      "count": 22411,
      "max": [
        1.0,
        1.0
      ],
      "min": [
        0.0,
        0.0
      ],
      "type": "VEC2"
    },
    {
      "bufferView": 0,
      "componentType": 5125,
      "count": 85464,
      "type": "SCALAR"
    }
  ],
  "asset": {
    "extras": {
      "author": "Thomas Flynn (https://sketchfab.com/nebulousflynn)",
      "license": "CC0-1.0 (http://creativecommons.org/publicdomain/zero/1.0/)",
      "source": "https://sketchfab.com/3d-models/lion-statue-optimized-62662d27c94d4994b2479b8de3a66ca7",
      "title": "Lion Statue - optimized"
    },
    "generator": "Sketchfab-10.49.1",
    "version": "2.0"
  },
  "bufferViews": [
    {
      "buffer": 0,
      "byteLength": 341856,
      "name": "floatBufferViews",
      "target": 34963
    },
    {
      "buffer": 0,
      "byteLength": 179288,
      "byteOffset": 341856,
      "byteStride": 8,
      "name": "floatBufferViews",
      "target": 34962
    },
    {
      "buffer": 0,
      "byteLength": 537864,
      "byteOffset": 521144,
      "byteStride": 12,
      "name": "floatBufferViews",
      "target": 34962
    },
    {
      "buffer": 0,
      "byteLength": 358576,
      "byteOffset": 1059008,
      "byteStride": 16,
      "name": "floatBufferViews",
      "target": 34962
    }
  ],
  "buffers": [
    {
      "byteLength": 1417584,
      "uri": "scene.bin"
    }
  ],
  "images": [
    {
      "uri": "textures/material_0_baseColor.png"
    },
    {
      "uri": "textures/material_0_normal.png"
    }
  ],
  "materials": [
    {
      "doubleSided": true,
      "name": "material_0",
      "normalTexture": {
        "index": 1
      },
      "pbrMetallicRoughness": {
        "baseColorTexture": {
          "index": 0
        },
        "metallicFactor": 0.0
      }
    }
  ],
  "meshes": [
    {
      "name": "Object_0",
      "primitives": [
        {
          "attributes": {
            "NORMAL": 1,
            "POSITION": 0,
            "TANGENT": 2,
            "TEXCOORD_0": 3
          },
          "indices": 4,
          "material": 0,
          "mode": 4
        }
      ]
    }
  ],
  "nodes": [
    {
      "children": [
        1
      ],
      "matrix": [
        0.04541175812482834,
        0.0,
        0.0,
        0.0,
        0.0,
        -0.0454116336142496,
        -0.0001068054303125385,
        0.0,
        0.0,
        0.0001068054303125385,
        -0.0454116336142496,
        0.0,
        0.0,
        -41.025138854980476,
        38.92901992797851,
        1.0
      ],
      "name": "Sketchfab_model"
    },
    {
      "children": [
        2
      ],
      "name": "rapid.obj.cleaner.materialmerger.gles"
    },
    {
      "mesh": 0,
      "name": "Object_2"
    }
  ],
  "samplers": [
    {
      "magFilter": 9729,
      "minFilter": 9987,
      "wrapS": 10497,
      "wrapT": 10497
    }
  ],
  "scene": 0,
  "scenes": [
    {
      "name": "Sketchfab_Scene",
      "nodes": [
        0
      ]
    }
  ],
  "textures": [
    {
      "sampler": 0,
      "source": 0
    },
    {
      "sampler": 0,
      "source": 1
    }
  ]
}
