{
	"asset":{
		"generator":"Khronos glTF Blender I/O v4.0.44",
		"version":"2.0"
	},
	"extensionsUsed":[
		"KHR_lights_punctual"
	],
	"extensionsRequired":[
		"KHR_lights_punctual"
	],
	"extensions":{
		"KHR_lights_punctual":{
			"lights":[
				{
					"color":[
						1,
						1,
						1
					],
					"intensity":108.70282613176452,
					"type":"point",
					"name":"Point"
				}
			]
		}
	},
	"scene":0,
	"scenes":[
		{
			"name":"Scene",
			"nodes":[
				0,
				1,
				2
			]
		}
	],
	"nodes":[
		{
			"mesh":0,
			"name":"NormalTangentTest_low"
		},
		{
			"camera":0,
			"name":"Camera.001",
			"rotation":[
				0.002777566434815526,
				0.011110841296613216,
				-3.0863535357639194e-05,
				0.9999344348907471
			],
			"translation":[
				0.05864372104406357,
				-0.09262878447771072,
				2.9154675006866455
			]
		},
		{
			"extensions":{
				"KHR_lights_punctual":{
					"light":0
				}
			},
			"name":"Point",
			"rotation":[
				-0.7071068286895752,
				0,
				0,
				0.7071068286895752
			],
			"translation":[
				0,
				0,
				10
			]
		}
	],
	"cameras":[
		{
			"name":"Camera.001",
			"perspective":{
				"aspectRatio":1.7777777777777777,
				"yfov":0.7853981852531433,
				"zfar":40.513771057128906,
				"znear":0.004051377065479755
			},
			"type":"perspective"
		}
	],
	"materials":[
		{
			"doubleSided":true,
			"name":"Material.001",
			"normalTexture":{
				"index":0
			},
			"occlusionTexture":{
				"index":1
			},
			"pbrMetallicRoughness":{
				"baseColorTexture":{
					"index":2
				},
				"metallicRoughnessTexture":{
					"index":1
				}
			}
		}
	],
	"meshes":[
		{
			"name":"NormalTangentTest_low",
			"primitives":[
				{
					"attributes":{
						"POSITION":0,
						"NORMAL":1,
						"TEXCOORD_0":2,
						"TANGENT":3
					},
					"indices":4,
					"material":0
				}
			]
		}
	],
	"textures":[
		{
			"sampler":0,
			"source":0
		},
		{
			"sampler":0,
			"source":1
		},
		{
			"sampler":0,
			"source":2
		}
	],
	"images":[
		{
			"mimeType":"image/png",
			"name":"Image_1",
			"uri":"Image_1.png"
		},
		{
			"mimeType":"image/png",
			"name":"Image_0",
			"uri":"Image_0.png"
		},
		{
			"mimeType":"image/png",
			"name":"Image_2",
			"uri":"Image_2.png"
		}
	],
	"accessors":[
		{
			"bufferView":0,
			"componentType":5126,
			"count":2770,
			"max":[
				1.4138822555541992,
				1.0467524528503418,
				0.08050008118152618
			],
			"min":[
				-1.4246257543563843,
				-1.2000000476837158,
				-0.009999947622418404
			],
			"type":"VEC3"
		},
		{
			"bufferView":1,
			"componentType":5126,
			"count":2770,
			"type":"VEC3"
		},
		{
			"bufferView":2,
			"componentType":5126,
			"count":2770,
			"type":"VEC2"
		},
		{
			"bufferView":3,
			"componentType":5126,
			"count":2770,
			"type":"VEC4"
		},
		{
			"bufferView":4,
			"componentType":5123,
			"count":15720,
			"type":"SCALAR"
		}
	],
	"bufferViews":[
		{
			"buffer":0,
			"byteLength":33240,
			"byteOffset":0,
			"target":34962
		},
		{
			"buffer":0,
			"byteLength":33240,
			"byteOffset":33240,
			"target":34962
		},
		{
			"buffer":0,
			"byteLength":22160,
			"byteOffset":66480,
			"target":34962
		},
		{
			"buffer":0,
			"byteLength":44320,
			"byteOffset":88640,
			"target":34962
		},
		{
			"buffer":0,
			"byteLength":31440,
			"byteOffset":132960,
			"target":34963
		}
	],
	"samplers":[
		{
			"magFilter":9729,
			"minFilter":9987
		}
	],
	"buffers":[
		{
			"byteLength":164400,
			"uri":"NormalTangent.bin"
		}
	]
}
